# xmcd
#
# Track frame offsets:
#	150
#	17975
#	37585
#	55460
#	74440
#	94540
#	117050
#	136645
#	158475
#	174925
#
# Disc length: 2573 seconds
#
# Revision: 0
# Processed by: cddbd v1.4PL0 Copyright (c) Steve Scherf et al.
# Submitted via: dBpowerAMP V4.0
#
DISCID=6f0a0b0a
DTITLE=Torrey Bliss - Prepare Your Heart
DYEAR=2003
DGENRE=Country
TTITLE0=Apple of God's Eye
TTITLE1=Build Upon the Rock
TTITLE2=Mountains
TTITLE3=Prepare Your Heart
TTITLE4=Found in You
TTITLE5=Rainbows
TTITLE6=Hope Beyond the Grave
TTITLE7=You Made a Way
TTITLE8=Reach Out
TTITLE9=You Don't Give Up So Easy
EXTD=
EXTT0=
EXTT1=
EXTT2=
EXTT3=
EXTT4=
EXTT5=
EXTT6=
EXTT7=
EXTT8=
EXTT9=
PLAYORDER=
